HIERARCHY
ROOT Hips
{
  OFFSET -17.8222 7.7 127.125
  CHANNELS 6 Xposition Yposition Zposition Zrotation Xrotation Yrotation
  JOINT Spine
  {
    OFFSET 0 0 0
    CHANNELS 3 Zrotation Xrotation Yrotation
    JOINT Spine1
    {
      OFFSET 19 0 0
      CHANNELS 3 Zrotation Xrotation Yrotation
      JOINT Neck
      {
        OFFSET 22.5 0.6 0
        CHANNELS 3 Zrotation Xrotation Yrotation
        JOINT Head
        {
          OFFSET 14 0.0308777 0
          CHANNELS 3 Zrotation Xrotation Yrotation
          End Site
          {
            OFFSET 17 0 0
          }
        }
      }
      JOINT LeftShoulder
      {
        OFFSET 19.8 3.7 4.3
        CHANNELS 3 Zrotation Xrotation Yrotation
        JOINT LeftArm
        {
          OFFSET 8 0 0
          CHANNELS 3 Zrotation Xrotation Yrotation
          JOINT LeftForeArm
          {
            OFFSET 15.2 0 0
            CHANNELS 3 Zrotation Xrotation Yrotation
            JOINT LeftHand
            {
              OFFSET 17.8 0 0
              CHANNELS 3 Zrotation Xrotation Yrotation
              End Site
              {
                OFFSET 7.2 0 0
              }
            }
          }
        }
      }
      JOINT RightShoulder
      {
        OFFSET 19.8 3.7 -4.3
        CHANNELS 3 Zrotation Xrotation Yrotation
        JOINT RightArm
        {
          OFFSET 8 0 0.151654
          CHANNELS 3 Zrotation Xrotation Yrotation
          JOINT RightForeArm
          {
            OFFSET 15.2 0 0
            CHANNELS 3 Zrotation Xrotation Yrotation
            JOINT RightHand
            {
              OFFSET 17.8 0 0
              CHANNELS 3 Zrotation Xrotation Yrotation
              End Site
              {
                OFFSET 7.2 0 0
              }
            }
          }
        }
      }
    }
  }
  JOINT LeftUpLeg
  {
    OFFSET 5.98425 -7.666 4.78879
    CHANNELS 3 Zrotation Xrotation Yrotation
    JOINT LeftLeg
    {
      OFFSET 16 0 0
      CHANNELS 3 Zrotation Xrotation Yrotation
      JOINT LeftFoot
      {
        OFFSET 18 0 0
        CHANNELS 3 Zrotation Xrotation Yrotation
        End Site
        {
          OFFSET 0 -10.8 0
        }
      }
    }
  }
  JOINT RightUpLeg
  {
    OFFSET 5.98425 -7.66598 -4.78879
    CHANNELS 3 Zrotation Xrotation Yrotation
    JOINT RightLeg
    {
      OFFSET 16 0 0
      CHANNELS 3 Zrotation Xrotation Yrotation
      JOINT RightFoot
      {
        OFFSET 18 0 0
        CHANNELS 3 Zrotation Xrotation Yrotation
        End Site
        {
          OFFSET 0 -10.8 0
        }
      }
    }
  }
  JOINT Tail
  {
    OFFSET 6.83696 -0.722574 0
    CHANNELS 3 Zrotation Xrotation Yrotation
    JOINT Tail1
    {
      OFFSET 12 0 0
      CHANNELS 3 Zrotation Xrotation Yrotation
      End Site
      {
        OFFSET 12 0 0
      }
    }
  }
}
MOTION
Frames:	17
Frame Time:	0.0166667
10.7469 44.1017 -384.96 -15.565 -7.29989 27.2735 -156.868 -0.279328 1.83386 -11.9031 6.13111 -22.8935 -31.6032 7.01698 -6.48808 -67.2759 86.9129 46.398 -108.373 -33.0763 -139.708 146.106 -51.7112 -124.035 -48.7998 8.67103 2.47191 -13.5574 0.498284 -7.07977 77.7607 -25.8969 43.3848 52.6169 -53.2531 -45.6438 -57.3101 -19.9478 5.60867 -8.43821 0.729778 3.17944 -125.698 7.0243 -15.5461 107.965 17.8569 -1.37792 34.5335 -2.0826 -4.2141 -124.12 -5.0058 2.91399 86.7945 -6.57112 -2.67805 34.6 -0.375232 -1.95739 16.3272 -0.70986 14.1265 31.2069 2.31191 4.48946 
10.2285 43.7664 -385.473 -14.6095 -7.87734 27.6299 -158.635 -0.680958 1.21093 -10.5897 5.65337 -22.9059 -32.1098 5.91502 -5.82875 -79.22 86.6577 58.3311 -108.7 -33.8043 -139.092 148.322 -52.1964 -122.613 -48.9532 8.17899 3.0892 -12.4634 0.297047 -6.50098 77.5029 -26.2414 43.2886 51.5662 -53.3212 -47.1007 -55.309 -20.8868 6.29165 -10.8497 0.207427 5.40653 -129.642 6.10498 -14.8515 110.982 15.6634 -1.45785 32.7506 -1.83459 -3.73021 -125.536 -5.17463 2.9373 88.7785 -6.58243 -2.69074 33.6365 -0.372188 -1.89535 10.4987 0.74401 15.2219 32.4524 0.608855 6.26036 
9.57973 43.595 -386.143 -14.6273 -8.91845 27.8565 -157.186 -1.1299 -0.499615 -11.9537 5.57778 -21.5495 -32.1894 4.54931 -5.57628 -93.4718 85.7432 72.7572 -109.192 -34.7173 -138.585 145.979 -53.054 -122.039 -52.4126 5.65731 2.93566 -8.27647 -0.141845 -3.97788 77.9323 -25.5416 43.0674 52.8905 -54.9969 -44.6863 -56.0158 -21.9923 5.96816 -11.6133 -0.160826 6.96985 -132.489 4.08641 -14.9404 113.409 13.7244 -1.3162 28.8465 -1.7802 -3.49743 -125.371 -4.9038 2.37826 90.5434 -5.70599 -2.61316 32.2725 -0.463407 -1.90622 2.48262 2.43701 16.6494 32.3772 -2.97226 8.66452 
8.9361 43.5944 -386.714 -15.0339 -9.6316 27.7286 -154.176 -1.72774 -2.28272 -15.0364 5.84999 -20.4152 -32.1888 2.78577 -4.93944 -105.871 84.573 85.6095 -109.733 -35.5387 -138.416 135.867 -52.6939 -125.121 -59.8 -1.76581 2.91084 0.824012 -0.0123414 0.0647297 76.0706 -27.4523 41.0169 57.4005 -56.8546 -42.7936 -56.1327 -23.3532 6.823 -12.4314 -0.489623 8.25973 -133.549 1.29504 -15.9589 113.15 12.6715 -0.80064 23.9252 -1.86787 -3.51781 -124.612 -4.3089 1.07471 91.4479 -4.71133 -2.40458 32.101 -0.432161 -1.82143 -5.76988 3.6032 18.0286 29.6781 -7.74857 10.1739 
8.19068 43.6026 -387.204 -14.8306 -10.1582 27.653 -151.967 -2.49242 -3.93422 -17.7718 5.91051 -19.5177 -32.1506 1.42507 -4.63333 -110.943 83.8676 91.3096 -110.214 -36.2387 -138.33 121.776 -50.8508 -130.669 -68.3848 -13.2994 4.41765 11.4785 1.32692 0.802931 76.0893 -27.4362 41.0454 60.7413 -57.9462 -41.9823 -57.7335 -22.964 7.61276 -11.7337 -0.646519 8.36525 -134.916 -1.73686 -16.5067 110.892 12.1425 0.0832189 22.0048 -2.02239 -3.78164 -124.245 -3.88511 -0.277164 92.0441 -3.5047 -2.14755 31.8321 -0.432542 -1.78909 -14.2867 4.80641 18.9656 24.9408 -12.9812 9.85453 
7.29886 43.5824 -387.609 -13.848 -10.5658 27.9814 -150.946 -3.1567 -6.24447 -19.7925 5.63226 -17.2195 -32.3631 -0.737079 -4.77527 -114.61 82.2152 94.9722 -110.459 -36.4308 -138.603 108.707 -48.2995 -135.708 -75.2697 -27.7718 8.28596 18.9267 2.52669 -5.02267 78.3794 -24.8555 42.9688 63.8086 -58.4063 -38.6541 -60.8072 -22.7965 7.06899 -11.3806 -0.574359 7.69091 -136.923 -4.43701 -17.0468 107.184 12.121 1.52019 24.205 -2.19096 -4.18545 -124.738 -3.66674 -1.45733 92.9584 -1.9429 -1.87032 31.6903 -0.5039 -1.9052 -22.9646 6.71887 18.3414 19.7633 -17.7608 8.85646 
6.39079 43.571 -387.905 -12.4956 -10.6969 29.1221 -150.649 -3.39322 -7.01241 -21.2451 5.5537 -16.2357 -32.5346 -2.91224 -4.8345 -117.215 80.6403 97.3336 -110.404 -35.9538 -139.398 97.9612 -45.8127 -142.133 -78.4298 -42.6687 15.309 21.5608 2.88222 -14.3537 77.4207 -26.2193 42.8892 63.5297 -61.4238 -38.6482 -60.367 -22.9292 6.5075 -10.5172 -0.943521 10.0327 -138.22 -6.15139 -17.2992 101.639 13.3505 3.39084 27.7174 -2.48456 -4.78082 -125.53 -2.98353 -2.00239 93.6769 -1.12383 -1.88844 32.5406 -0.466824 -1.93411 -30.9854 9.56552 15.7565 14.8624 -21.6582 7.75728 
5.56197 43.5621 -388.108 -11.0958 -10.609 30.8127 -150.821 -3.30829 -6.5377 -22.0634 5.61139 -16.3002 -32.3761 -3.49228 -5.16881 -116.772 80.7983 97.0137 -110.491 -35.776 -139.984 89.8135 -44.1253 -148.384 -77.1073 -54.5313 25.1495 21.3924 3.14455 -22.1243 76.929 -27.114 43.3769 62.8804 -63.3789 -40.0013 -59.9083 -23.3686 6.39568 -10.2175 -1.16563 11.2562 -138.679 -7.07489 -16.9171 94.8097 15.1698 5.50875 31.6137 -2.93228 -5.53799 -125.67 -1.62512 -1.84332 93.528 -0.254485 -2.22183 31.9749 -0.543683 -2.05386 -38.2989 13.0496 12.744 10.0744 -24.7181 6.14154 
4.80297 43.5935 -388.254 -10.1339 -10.3884 32.5987 -151.002 -3.06311 -5.6202 -22.3353 5.76347 -16.812 -32.5289 -5.50467 -4.58837 -119.662 80.6714 99.8019 -110.788 -36.1595 -140.003 84.1882 -43.5374 -153.704 -73.1118 -61.5842 35.285 21.4907 3.30271 -24.5842 77.2187 -26.9715 44.1512 64.2226 -62.8346 -41.1545 -59.8053 -24.0991 7.2302 -11.2717 -1.12717 10.411 -137.93 -7.36187 -16.3537 87.0638 17.3832 7.98422 35.8773 -3.56766 -6.48277 -125.277 0.173902 -1.50827 93.0308 0.665435 -2.68709 31.2531 -0.655843 -2.21819 -44.211 16.9596 9.22305 5.54514 -26.8902 4.35389 
4.08076 43.5567 -388.281 -9.15236 -9.85918 34.8207 -152.194 -2.355 -4.02089 -21.6725 6.09893 -17.6974 -32.6567 -8.51373 -3.75199 -123.283 79.3675 102.977 -110.827 -36.3508 -139.727 80.3186 -42.9281 -157.859 -68.9174 -65.2701 43.0498 23.0558 3.26984 -24.2152 77.4291 -26.7917 44.5168 62.1466 -63.4196 -42.6629 -59.1472 -23.5829 6.66072 -11.1698 -1.38193 11.8629 -136.905 -7.2254 -15.7105 79.1627 20.2376 10.5542 38.8902 -4.36593 -7.56113 -125.697 2.14864 -0.812869 93.139 0.757137 -3.36695 31.8529 -0.645529 -2.26702 -49.107 21.3432 5.33544 1.57409 -27.113 2.20008 
3.52078 43.4339 -388.282 -8.66365 -9.27758 37.0169 -153.774 -1.37932 -2.07084 -20.3114 6.60489 -18.9331 -32.4448 -9.95112 -3.51177 -123.835 78.5871 103.376 -110.68 -36.4048 -139.236 78.5003 -42.4497 -160.612 -68.65 -65.7572 44.0073 25.2889 3.25778 -21.8796 77.6422 -26.5145 44.6326 60.2856 -63.2084 -44.0865 -57.9447 -23.3805 6.32049 -11.4572 -1.42849 12.3755 -136.092 -7.25325 -15.5084 74.7824 20.9122 12.1213 38.8665 -4.76679 -8.13015 -126.336 4.22358 0.150144 93.7522 -0.0892852 -4.16771 33.0985 -0.493366 -2.08686 -52.6255 25.7226 1.3931 -1.46566 -24.7997 0.00278687 
3.17602 43.2119 -388.333 -9.01828 -8.56541 38.8683 -155.376 -0.271741 -0.571346 -18.4728 7.18136 -19.7412 -32.0402 -9.81958 -3.69931 -122.919 78.3345 102.506 -110.574 -36.4426 -138.885 78.8995 -41.906 -161.378 -69.6104 -64.7087 41.3515 25.4167 3.30578 -21.3032 77.7327 -26.4212 44.7512 57.1322 -63.2305 -46.0536 -56.6757 -22.5841 5.65916 -11.2519 -1.64625 13.5406 -136.355 -7.74162 -16.465 76.0056 18.4568 12.2945 36.9137 -4.54882 -7.92759 -126.32 6.87669 0.93137 94.3442 -0.785127 -5.05482 33.2124 -0.361455 -1.85163 -54.3807 29.5864 -2.9009 -3.26611 -18.8508 -1.83432 
2.96891 42.9824 -388.426 -9.99917 -8.16126 40.2607 -156.51 0.674904 0.0646462 -16.6677 7.57121 -19.6607 -31.5498 -8.89922 -4.08818 -121.704 78.3178 101.352 -110.489 -36.3257 -138.888 81.636 -41.4763 -160.118 -72.5378 -60.5248 33.9248 22.0817 3.54409 -22.1452 77.7123 -26.5011 44.8877 51.7785 -64.0239 -48.553 -55.3023 -21.4761 4.43665 -10.4887 -2.01443 15.5873 -136.859 -7.85484 -18.3275 78.5012 17.7136 12.6276 35.1511 -4.54847 -8.07832 -125.17 9.61042 1.51325 94.6459 -1.18255 -5.86479 31.5696 -0.343752 -1.66558 -54.4181 33.0655 -7.49039 -3.48984 -8.871 -2.94285 
2.73116 42.7887 -388.541 -11.1137 -8.31229 41.4964 -157.156 1.3006 0.124203 -15.1293 7.63467 -18.8471 -31.2392 -8.9039 -4.22212 -121.333 77.433 101.145 -110.333 -36.0259 -139.066 86.0939 -41.7742 -157.511 -75.915 -51.655 24.1315 17.052 3.88047 -19.4974 77.7313 -26.4707 44.8829 48.2193 -64.5302 -49.9758 -54.986 -19.4797 3.69667 -8.25648 -1.74783 15.221 -136.861 -7.28612 -20.1518 79.1081 18.6603 13.2755 35.0703 -4.81235 -8.5124 -124.647 11.272 1.56637 95.8128 -2.26064 -6.10019 32.3383 -0.189463 -1.37221 -52.8955 36.4306 -12.3073 -3.00513 2.70364 -3.75164 
2.42495 42.5221 -388.736 -12.1661 -8.85109 42.9267 -157.756 1.68256 -0.311822 -13.7372 7.35376 -17.1193 -31.0372 -9.80466 -4.02426 -122.141 75.8881 101.808 -110.01 -35.5327 -139.181 91.7994 -42.4347 -153.711 -75.7188 -37.6564 15.5491 9.37668 3.80601 -14.4628 77.8 -26.3323 44.7859 48.83 -64.0155 -49.036 -55.1706 -18.4261 3.68751 -6.34656 -0.937511 11.8737 -136.934 -6.49004 -21.1443 80.0995 19.4829 12.8478 35.1032 -4.89152 -8.62095 -125.458 12.2233 1.56474 98.8761 -2.6492 -5.8175 33.3908 -0.137411 -1.253 -49.709 39.4795 -17.5064 -2.11224 13.6247 -4.71835 
2.0978 42.1666 -389.039 -13.1201 -10.0595 44.4129 -157.998 1.66487 -1.07161 -12.4946 6.6607 -14.8517 -30.7708 -10.3678 -3.82238 -122.981 74.6764 102.249 -109.534 -34.8538 -139.259 98.6375 -42.3533 -148.729 -70.7236 -20.6071 8.82707 0.077319 2.9614 -10.1676 77.7496 -26.3161 44.5287 47.1986 -63.7434 -49.3485 -53.7208 -19.2159 3.33614 -7.44261 -0.872184 11.0959 -137.07 -5.69424 -21.1922 82.8064 20.3552 11.5405 34.1538 -4.86877 -8.66679 -125.665 12.7751 2.44179 102.026 -3.77873 -5.63217 32.5865 -0.13135 -1.10366 -45.2536 42.1913 -22.665 -0.688889 20.9912 -5.7715 
1.66148 41.6969 -389.379 -13.7613 -12.0902 46.268 -157.781 1.35172 -1.7522 -11.3633 5.6135 -12.2564 -30.7173 -11.7251 -3.32876 -124.363 73.23 103.174 -108.881 -33.7789 -139.668 106.097 -41.0008 -143.419 -62.324 -6.57469 3.13176 -7.60799 1.8459 -7.45921 77.6768 -26.3664 44.3649 43.0353 -64.6693 -51.2534 -52.602 -18.5308 2.66795 -7.7356 -1.06264 11.8663 -136.902 -5.36525 -20.4578 85.7233 20.8301 10.1001 32.9454 -4.76698 -8.58805 -125.413 12.5038 3.34333 105.454 -5.76263 -5.40402 31.7822 -0.112727 -0.919892 -39.2937 44.6869 -28.0048 0.839122 23.3182 -6.73714 
